# xmcd
#
# Track frame offsets: 
#        150
#        16832
#        31574
#        50554
#        69858
#        90181
#        111192
#        132130
#        148857
#        162984
#        180907
#        197707
#
# Disc length: 3016 seconds
#
# Revision: 0
# Processed by: cddbd v1.4PL0 Copyright (c) Steve Scherf et al.
# Submitted via: ExactAudioCopy v0.90b3
#
DISCID=8e0bc60c
DTITLE=Daniele Groff - Variatio 22
DYEAR=1998
DGENRE=Pop
TTITLE0=Daisy
TTITLE1=Vivere per sempre
TTITLE2=Lamerica
TTITLE3=Adesso
TTITLE4=Variatio 22
TTITLE5=Io sono Io
TTITLE6=Un mondo da scoprire
TTITLE7=Green in the park
TTITLE8=Bob Paul and Seneca
TTITLE9=Everyday
TTITLE10=Walking fly
TTITLE11=Dove sei stata
EXTD=
EXTT0=
EXTT1=
EXTT2=
EXTT3=
EXTT4=
EXTT5=
EXTT6=
EXTT7=
EXTT8=
EXTT9=
EXTT10=
EXTT11=
PLAYORDER=
